<?xml version="1.0" encoding="UTF-8" standalone="no"?>
<!-- Created with Inkscape (http://www.inkscape.org/) -->

<svg
   width="296.4776mm"
   height="100.29291mm"
   viewBox="0 0 296.4776 100.29291"
   version="1.1"
   id="svg674"
   xmlns="http://www.w3.org/2000/svg"
   xmlns:svg="http://www.w3.org/2000/svg">
  <defs
     id="defs671">
    <rect
       x="124"
       y="-448"
       width="2075.2935"
       height="543.48022"
       id="rect4630-9-9-67-6" />
  </defs>
  <g
     id="layer1"
     transform="translate(145.39177,24.380597)">
    <rect
       style="fill:#333333;fill-opacity:1;stroke-width:1.001;stroke-linecap:round;stroke-linejoin:round;paint-order:stroke fill markers"
       id="rect1199"
       width="326.07098"
       height="122.46797"
       x="-161.62871"
       y="-45.388645" />
    <path
       id="path2831"
       style="font-weight:500;font-size:128px;line-height:1;font-family:Oswald;-inkscape-font-specification:'Oswald Medium';text-align:center;white-space:pre;shape-inside:url(#rect4630-9-9-67-6);display:inline;fill:#ffffff;stroke-width:0.377953;stroke-linecap:round;stroke-linejoin:round;paint-order:stroke fill markers"
       d="m 1405.1037,-449.7934 c -8.2773,0 -14.8065,2.21894 -19.5852,6.65626 -4.7786,4.43733 -7.1669,10.75297 -7.1669,18.94496 0,5.71733 1.0652,10.53811 3.1986,14.46343 2.2186,3.84 5.1641,7.33776 8.8335,10.49509 l 13.0559,11.52142 c 3.4134,2.90133 6.1428,5.80264 8.1908,8.70397 2.048,2.90133 3.0716,6.61264 3.0716,11.1353 0,2.81599 -0.6407,5.16257 -1.9207,7.0399 -1.28,1.792 -3.4547,2.68792 -6.5267,2.68792 -2.7307,0 -4.9496,-0.81 -6.6563,-2.43134 -1.6213,-1.70666 -2.8584,-4.09744 -3.7117,-7.16944 -0.768,-3.07199 -1.2369,-6.61146 -1.4075,-10.62212 l -16.2571,3.19859 c 0.256,6.82666 1.4514,12.58756 3.5847,17.28089 2.1334,4.69333 5.29,8.277 9.4713,10.75167 4.1813,2.38933 9.3875,3.58472 15.6168,3.58472 5.2053,0 9.7266,-1.06776 13.5666,-3.20109 3.9254,-2.21866 6.9568,-5.2476 9.0901,-9.0876 2.2187,-3.84 3.3282,-8.23367 3.3282,-13.183 0,-6.82666 -1.5366,-12.62927 -4.6086,-17.40794 -2.9867,-4.86399 -6.6146,-9.08832 -10.8812,-12.67231 l -12.9264,-11.39189 c -2.7307,-2.38933 -4.822,-4.69419 -6.2727,-6.91285 -1.4506,-2.304 -2.1772,-5.20531 -2.1772,-8.70397 0,-2.73067 0.7266,-4.99132 2.1772,-6.78332 1.536,-1.87733 3.7108,-2.81745 6.5268,-2.81745 2.7306,0 4.7802,0.72657 6.1456,2.17724 1.4506,1.45066 2.4325,3.45605 2.9445,6.01605 0.5973,2.55999 0.9802,5.4613 1.1509,8.70396 l 16.1275,-2.81745 c -0.256,-3.75466 -0.8525,-7.29413 -1.7912,-10.62213 -0.9386,-3.41333 -2.3893,-6.44476 -4.3519,-9.09009 -1.8774,-2.64533 -4.4375,-4.69243 -7.6802,-6.1431 -3.2426,-1.536 -7.2951,-2.30428 -12.1591,-2.30428 z m 118.0142,0 c -8.2773,0 -14.804,2.21894 -19.5826,6.65626 -4.7787,4.43733 -7.1695,10.75297 -7.1695,18.94496 0,5.71733 1.0678,10.53811 3.2011,14.46343 2.2187,3.84 5.1617,7.33776 8.831,10.49509 l 13.056,11.52142 c 3.4133,2.90133 6.1453,5.80264 8.1933,8.70397 2.048,2.90133 3.0715,6.61264 3.0715,11.1353 0,2.81599 -0.6406,5.16257 -1.9206,7.0399 -1.28,1.792 -3.4548,2.68792 -6.5268,2.68792 -2.7306,0 -4.9496,-0.81 -6.6562,-2.43134 -1.6214,-1.70666 -2.8585,-4.09744 -3.7118,-7.16944 -0.768,-3.07199 -1.2393,-6.61146 -1.41,-10.62212 l -16.2545,3.19859 c 0.256,6.82666 1.4514,12.58756 3.5847,17.28089 2.1333,4.69333 5.2899,8.277 9.4712,10.75167 4.1814,2.38933 9.3875,3.58472 15.6168,3.58472 5.2054,0 9.7267,-1.06776 13.5667,-3.20109 3.9253,-2.21866 6.9542,-5.2476 9.0876,-9.0876 2.2186,-3.84 3.3281,-8.23367 3.3281,-13.183 0,-6.82666 -1.5366,-12.62927 -4.6086,-17.40794 -2.9866,-4.86399 -6.612,-9.08832 -10.8787,-12.67231 l -12.9289,-11.39189 c -2.7306,-2.38933 -4.8195,-4.69419 -6.2701,-6.91285 -1.4507,-2.304 -2.1773,-5.20531 -2.1773,-8.70397 0,-2.73067 0.7266,-4.99132 2.1773,-6.78332 1.536,-1.87733 3.7107,-2.81745 6.5267,-2.81745 2.7307,0 4.7778,0.72657 6.1431,2.17724 1.4507,1.45066 2.4325,3.45605 2.9445,6.01605 0.5973,2.55999 0.9827,5.4613 1.1534,8.70396 l 16.1275,-2.81745 c -0.256,-3.75466 -0.8549,-7.29413 -1.7936,-10.62213 -0.9387,-3.41333 -2.3893,-6.44476 -4.352,-9.09009 -1.8773,-2.64533 -4.435,-4.69243 -7.6776,-6.1431 -3.2427,-1.536 -7.2977,-2.30428 -12.1617,-2.30428 z m -658.01397,0.13203 v 104.31309 h 18.81542 v -9.40646 l 68.94171,-0.32385 v 9.77266 h 18.81043 v -104.3131 h -18.81043 v 23.50122 l -68.94171,0.32633 v -23.86989 z m -86.68843,1.02135 -1.79361,103.68036 h 14.20934 l 1.40749,-72.32216 14.9766,72.32216 h 11.39189 l 14.72002,-72.06557 1.53452,72.06557 h 14.07981 l -1.91817,-103.68036 h -18.94495 l -15.36024,71.80649 -14.72002,-71.80649 z m 210.30272,0 v 103.68036 h 44.03298 v -13.05596 h -25.088 v -90.6244 z m 42.62548,0 v 13.95027 h 16.5112 v 89.73009 h 18.9449 v -89.73009 h 16.2546 v -13.95027 z m 61.6951,0 v 103.68036 h 18.6884 v -103.68036 z m 34.6888,0 v 103.68036 h 43.7739 v -13.05596 h -24.8314 v -34.30519 h 19.3286 v -13.183 h -19.3286 v -29.82616 h 24.5773 v -13.31005 z m 54.7822,0 v 103.68036 h 16.1275 v -61.95412 l 25.3446,61.95412 h 12.5453 v -103.68036 h -15.6168 v 59.13417 l -25.2151,-59.13417 z m 64.7691,0 20.8631,103.68036 h 18.6884 l 20.8631,-103.68036 h -17.1514 l -12.7993,73.34351 -13.6962,-73.34351 z m 82.6877,0 -20.7361,103.68036 h 17.7916 l 4.2249,-23.93716 h 18.0482 l 4.0954,23.93716 h 17.5349 l -20.736,-103.68036 z m 114.0484,0 v 103.68036 h 43.7764 v -13.05596 h -24.834 v -34.30519 h 19.3286 v -13.183 h -19.3286 v -29.82616 h 24.5774 v -13.31005 z m -103.8074,24.19126 7.0399,43.51984 h -14.0798 z m -387.34654,14.32393 v 39.05326 l -68.94171,0.32385 v -39.05327 z"
       transform="matrix(0.20744269,0,0,0.20744269,-234.20356,105.77312)" />
  </g>
</svg>
